HIERARCHY
ROOT Hips
{
 OFFSET 0.000000 0.000000 0.000000
 CHANNELS 6 Xposition Yposition Zposition Yrotation Xrotation Zrotation
 JOINT Chest
 {
  OFFSET 0.000000 9.581000 -0.001100
  CHANNELS 3 Yrotation Xrotation Zrotation
  JOINT Chest2
  {
   OFFSET 0.000000 9.561100 0.002200
   CHANNELS 3 Yrotation Xrotation Zrotation
   JOINT Chest3
   {
    OFFSET 0.000000 9.521100 0.000000
    CHANNELS 3 Yrotation Xrotation Zrotation
    JOINT Chest4
    {
     OFFSET 0.000000 9.511400 0.000000
     CHANNELS 3 Yrotation Xrotation Zrotation
     JOINT Neck
     {
      OFFSET 0.000000 14.375100 0.000000
      CHANNELS 3 Yrotation Xrotation Zrotation
      JOINT Head
      {
       OFFSET 0.000000 8.901200 0.004600
       CHANNELS 3 Yrotation Xrotation Zrotation
       End Site
       {
        OFFSET 0.000000 16.962200 0.002400
       }
      }
     }
     JOINT RightCollar
     {
      OFFSET -2.920100 9.518800 0.000000
      CHANNELS 3 Yrotation Xrotation Zrotation
      JOINT RightShoulder
      {
       OFFSET -13.664500 0.000000 0.000000
       CHANNELS 3 Yrotation Xrotation Zrotation
       JOINT RightElbow
       {
        OFFSET 0.000000 -29.999200 0.000000
        CHANNELS 3 Yrotation Xrotation Zrotation
        JOINT RightWrist
        {
         OFFSET 0.000000 -24.253600 0.000000
         CHANNELS 3 Yrotation Xrotation Zrotation
         End Site
         {
          OFFSET 0.000000 -17.918900 0.000000
         }
        }
       }
      }
     }
     JOINT LeftCollar
     {
      OFFSET 2.920100 9.518800 0.000000
      CHANNELS 3 Yrotation Xrotation Zrotation
      JOINT LeftShoulder
      {
       OFFSET 13.664500 0.000000 0.000000
       CHANNELS 3 Yrotation Xrotation Zrotation
       JOINT LeftElbow
       {
        OFFSET 0.000000 -29.999200 0.000000
        CHANNELS 3 Yrotation Xrotation Zrotation
        JOINT LeftWrist
        {
         OFFSET 0.000000 -24.253600 0.000000
         CHANNELS 3 Yrotation Xrotation Zrotation
         End Site
         {
          OFFSET 0.000000 -17.918900 0.000000
         }
        }
       }
      }
     }
    }
   }
  }
 }
 JOINT RightHip
 {
  OFFSET -7.797300 0.005300 0.000500
  CHANNELS 3 Yrotation Xrotation Zrotation
  JOINT RightKnee
  {
   OFFSET 0.000000 -40.663400 -0.000500
   CHANNELS 3 Yrotation Xrotation Zrotation
   JOINT RightAnkle
   {
    OFFSET 0.000000 -39.523700 -0.000900
    CHANNELS 3 Yrotation Xrotation Zrotation
    JOINT RightToe
    {
     OFFSET 0.000000 -6.418000 14.485300
     CHANNELS 3 Yrotation Xrotation Zrotation
     End Site
     {
      OFFSET 0.000000 -1.465200 6.326400
     }
    }
   }
  }
 }
 JOINT LeftHip
 {
  OFFSET 7.797300 0.005300 0.000500
  CHANNELS 3 Yrotation Xrotation Zrotation
  JOINT LeftKnee
  {
   OFFSET 0.000000 -40.663400 -0.000500
   CHANNELS 3 Yrotation Xrotation Zrotation
   JOINT LeftAnkle
   {
    OFFSET 0.000000 -39.523700 -0.000900
    CHANNELS 3 Yrotation Xrotation Zrotation
    JOINT LeftToe
    {
     OFFSET 0.000000 -6.418000 14.485300
     CHANNELS 3 Yrotation Xrotation Zrotation
     End Site
     {
      OFFSET 0.000000 -1.465200 6.326400
     }
    }
   }
  }
 }
}
MOTION
Frames: 12
Frame Time: 0.008333
0.000000 86.422400 0.000000 0.000000 -5.767877 0.000000 0.000000 11.653817 0.000000 0.000000 -5.885947 0.000000 0.000000 -0.000000 0.000000 0.000000 -0.000000 0.000000 0.000000 12.528835 0.000000 0.000000 0.711642 0.000000 0.000000 -0.000000 0.000000 0.000000 0.000000 -90.000000 0.000000 -2.309062 0.000000 0.000000 2.309062 0.000000 0.000000 -0.000000 0.000000 0.000000 -0.000000 90.000000 0.000000 -2.309062 0.000000 0.000000 2.309062 0.000000 0.000000 8.520406 0.000000 0.000000 1.905762 0.000000 -0.000000 -4.658285 0.000000 0.000000 -0.000000 0.000000 0.000000 8.520406 0.000000 0.000000 1.905762 0.000000 -0.000000 -4.658285 0.000000 0.000000 -0.000000 0.000000
-9.805588 126.559844 4.655161 169.467902 -31.919027 -3.036723 2.853602 20.581735 1.667501 0.335823 2.628355 0.154717 0.535717 4.380074 0.261872 2.379914 17.582329 1.348151 3.562048 19.932822 0.091618 3.787463 -4.593741 -0.740396 -4.074893 -0.180493 3.112578 -31.610820 -20.997488 -17.451959 -103.204218 -16.299252 92.668058 -29.724310 -8.730544 -6.672987 -3.375518 0.029752 4.321822 35.380970 -17.654090 6.839597 90.894573 -29.854575 -81.093098 31.571760 -26.443913 2.110531 2.747334 -50.584950 3.267146 -91.236146 83.867720 -90.636948 9.895439 -25.607414 2.624635 0.003046 0.004255 0.001350 -8.617011 -43.774985 -0.452694 54.331824 82.353393 47.086801 2.473014 -9.289129 2.961412 -0.006978 0.007719 -0.003092
-9.806259 126.561296 4.654698 169.500535 -31.943203 -3.042261 2.832974 20.577369 1.660356 0.328910 2.634329 0.154285 0.536624 4.341821 0.259492 2.375704 17.633350 1.352533 3.561667 19.947186 0.098238 3.782706 -4.482607 -0.687073 -4.078219 -0.163813 3.114268 -31.590652 -20.928159 -17.402053 -103.207396 -16.253282 92.714208 -29.733898 -8.755466 -6.646928 -3.389621 0.062896 4.290150 35.308034 -17.589689 6.738933 90.890642 -29.943475 -81.142644 31.552728 -26.441153 2.147527 2.738936 -50.555847 3.250277 -91.242653 83.861033 -90.655316 9.889880 -25.618663 2.630683 0.001837 0.004684 0.000814 -8.624667 -43.749160 -0.450837 54.155706 82.372242 46.892414 2.468373 -9.280600 2.967194 -0.005850 0.007894 -0.002592
-9.806279 126.561337 4.656988 169.512644 -31.953107 -3.042189 2.824851 20.565240 1.655612 0.325642 2.640693 0.155109 0.534411 4.347449 0.258106 2.365745 17.612522 1.345061 3.570536 19.983438 0.111796 3.769216 -4.424386 -0.652002 -4.068265 -0.123163 3.112958 -31.575333 -20.864688 -17.348017 -103.208996 -16.217865 92.761311 -29.733403 -8.751649 -6.589330 -3.397601 0.115414 4.261784 35.239645 -17.532256 6.643259 90.885671 -30.014902 -81.192136 31.544632 -26.457526 2.183268 2.745868 -50.544199 3.243875 -91.266721 83.827355 -90.705399 9.907849 -25.636561 2.657047 -0.002626 0.006768 -0.001164 -8.622498 -43.741914 -0.443760 54.042971 82.388279 46.766203 2.462971 -9.273120 2.977325 -0.003897 0.006591 -0.001727
-9.805868 126.561686 4.659075 169.530375 -31.966463 -3.046047 2.814683 20.553709 1.657063 0.319775 2.659875 0.151583 0.531475 4.346218 0.257103 2.343094 17.593966 1.330806 3.567566 20.053833 0.148870 3.767461 -4.394983 -0.644872 -4.041852 -0.084174 3.113705 -31.569737 -20.807835 -17.295026 -103.208628 -16.195943 92.811049 -29.719464 -8.716258 -6.516638 -3.379377 0.147541 4.259106 35.160229 -17.458416 6.541807 90.882969 -30.057840 -81.245808 31.552609 -26.491770 2.213350 2.751895 -50.531829 3.229099 -91.315788 83.806016 -90.758630 9.918624 -25.645899 2.668326 0.001045 0.008347 0.000463 -8.626868 -43.731240 -0.445651 53.994782 82.396319 46.713470 2.457712 -9.268859 2.978631 -0.001111 0.006909 -0.000492
-9.805943 126.561657 4.661694 169.545034 -31.976222 -3.044942 2.806121 20.552693 1.652288 0.315109 2.665637 0.150973 0.536712 4.330899 0.255178 2.334613 17.610233 1.329007 3.541622 20.100979 0.169046 3.747151 -4.355049 -0.623506 -4.033472 -0.063880 3.110603 -31.577397 -20.770064 -17.249836 -103.206758 -16.187467 92.851473 -29.698635 -8.649243 -6.449856 -3.400175 0.175429 4.222301 35.090451 -17.425640 6.467935 90.882523 -30.066302 -81.302091 31.581452 -26.535919 2.230211 2.763247 -50.527415 3.213860 -91.391718 83.792265 -90.831273 9.890459 -25.655595 2.667920 0.003937 0.007654 0.001745 -8.621258 -43.728635 -0.453737 53.934747 82.408158 46.643052 2.458097 -9.260990 2.993725 -0.001809 0.004045 -0.000802
-9.807960 126.562906 4.661684 169.562886 -32.001094 -3.030563 2.788966 20.569587 1.632416 0.320841 2.656285 0.150264 0.529391 4.344706 0.253154 2.331315 17.611250 1.324936 3.508284 20.147307 0.185254 3.752889 -4.352990 -0.622976 -4.029066 -0.042562 3.113096 -31.584956 -20.767319 -17.227659 -103.205753 -16.186400 92.866025 -29.688040 -8.608193 -6.421067 -3.420149 0.197623 4.182146 35.057361 -17.430717 6.452947 90.822755 -29.990213 -81.329746 31.623738 -26.578467 2.235855 2.812650 -50.517462 3.163038 -91.559123 83.745853 -90.994485 9.925105 -25.663317 2.672778 0.013610 -0.000461 0.006030 -8.607028 -43.708113 -0.490770 53.876431 82.407158 46.572498 2.459409 -9.248868 3.005279 -0.003969 0.003615 -0.001759
-9.809798 126.563031 4.663584 169.573185 -32.012974 -3.014945 2.774899 20.578735 1.612792 0.320705 2.654294 0.151267 0.528639 4.349571 0.250433 2.328779 17.613314 1.316097 3.466054 20.190741 0.203781 3.690969 -4.283129 -0.586832 -4.002775 0.002375 3.120311 -31.612944 -20.743093 -17.164147 -103.214796 -16.206654 92.915388 -29.675672 -8.579505 -6.375466 -3.446574 0.216348 4.138357 34.947461 -17.401869 6.398964 90.870457 -29.974447 -81.399987 31.665515 -26.613935 2.236435 2.838707 -50.510035 3.131420 -91.638305 83.702851 -91.080055 9.916661 -25.682070 2.678504 0.005866 -0.000098 0.002599 -8.586836 -43.702845 -0.524277 53.841559 82.402963 46.524208 2.457432 -9.235774 3.025108 -0.008742 0.002045 -0.003873
-9.810561 126.562760 4.666462 169.577495 -32.019484 -3.003407 2.767030 20.582892 1.600781 0.320685 2.652993 0.151135 0.525848 4.351550 0.250467 2.317930 17.618725 1.308460 3.425108 20.229962 0.214216 3.615054 -4.215919 -0.550954 -3.977005 0.023831 3.124820 -31.604923 -20.664087 -17.105591 -103.263015 -16.265148 93.012987 -29.648163 -8.521885 -6.333757 -3.458874 0.230017 4.089286 34.827548 -17.379208 6.361203 90.920208 -29.953936 -81.456452 31.696469 -26.636978 2.232195 2.860449 -50.507187 3.111875 -91.707410 83.662143 -91.149226 9.906222 -25.711649 2.667908 -0.002535 -0.002007 -0.001123 -8.565753 -43.704949 -0.552512 53.908389 82.393626 46.590175 2.445306 -9.224958 3.030753 -0.010303 0.001173 -0.004565
-9.810660 126.562716 4.669179 169.579693 -32.027862 -2.994470 2.761611 20.577677 1.595805 0.318984 2.662395 0.147762 0.525327 4.350164 0.250349 2.316255 17.625270 1.301598 3.371268 20.265945 0.225727 3.558168 -4.179679 -0.529682 -3.963059 0.046923 3.133270 -31.601917 -20.621321 -17.062396 -103.294721 -16.335282 93.069793 -29.617696 -8.475380 -6.315645 -3.484035 0.252781 4.049489 34.747242 -17.379786 6.343250 90.928390 -29.922459 -81.482018 31.711761 -26.642046 2.225819 2.885954 -50.506711 3.096569 -91.795295 83.624622 -91.243044 9.914556 -25.728980 2.678359 -0.009050 -0.003878 -0.004009 -8.542830 -43.703841 -0.577929 53.958001 82.388895 46.645832 2.439497 -9.217914 3.030146 -0.008825 0.001317 -0.003910
-9.809917 126.563067 4.671518 169.582661 -32.040024 -2.990480 2.756339 20.587532 1.591404 0.315737 2.661157 0.150361 0.527462 4.353816 0.246765 2.303043 17.633301 1.294584 3.322607 20.287649 0.230059 3.501167 -4.156698 -0.516360 -3.939356 0.064443 3.140374 -31.599244 -20.594335 -17.026343 -103.319537 -16.405353 93.127194 -29.590329 -8.473388 -6.326171 -3.487826 0.271752 4.012962 34.671696 -17.391032 6.328224 90.924637 -29.918481 -81.491683 31.706050 -26.688497 2.211650 2.913345 -50.503751 3.085815 -91.876760 83.608373 -91.317678 9.910391 -25.738962 2.680458 -0.008560 -0.006267 -0.003792 -8.508107 -43.699664 -0.605817 54.006553 82.387375 46.712010 2.430740 -9.210480 3.031330 -0.006916 0.000294 -0.003064
-9.810590 126.564596 4.671575 169.585964 -32.066048 -2.975858 2.746447 20.612558 1.576226 0.315380 2.662328 0.151016 0.526538 4.355581 0.244976 2.302691 17.634624 1.292232 3.260235 20.302512 0.225254 3.444901 -4.152104 -0.512839 -3.931604 0.075468 3.143125 -31.589332 -20.557169 -16.999031 -103.351669 -16.456665 93.185840 -29.531823 -8.540315 -6.418553 -3.501363 0.295146 3.981675 34.612245 -17.404336 6.313337 90.910175 -29.947444 -81.494903 31.726311 -26.722523 2.204476 2.951120 -50.486183 3.061851 -91.948434 83.594939 -91.381603 9.901629 -25.741661 2.683175 -0.008465 -0.007406 -0.003750 -8.476863 -43.680470 -0.641520 54.126699 82.369175 46.841502 2.410201 -9.195483 3.028292 -0.000202 -0.000294 -0.000089
